# xmcd CD database file
#
# Track frame offsets:
#	150
#	19088
#	36970
#	54617
#	70801
#	85538
#	101106
#	126106
#	144741
#	161834
#	180091
#	200836
#	216270
#	242957
#	263147
#
# Disc length: 3750 seconds
#
# Revision: 0
# Processed by: cddbd v1.5.2PL0 Copyright (c) Steve Scherf et al.
# Submitted via: CDex 1.51
#
DISCID=db0ea40f
DTITLE=Yanni - Truth Of Touch
DYEAR=2010
DGENRE=New Age
TTITLE0=Truth Of Touch
TTITLE1=Echo Of A Dream
TTITLE2=Seasons
TTITLE3=Voyage
TTITLE4=Flash Of Color
TTITLE5=Vertigo
TTITLE6=Nine
TTITLE7=Can't Wait
TTITLE8=Guilty Pleasure
TTITLE9=O Luce Che Brilla Nell'Oscurita
TTITLE10=I'm So
TTITLE11=Long Way Home
TTITLE12=Yanni and Arturo
TTITLE13=Mist Of A Kiss
TTITLE14=Secret
EXTD=YEAR: 2010
EXTT0=
EXTT1=
EXTT2=
EXTT3=
EXTT4=
EXTT5=
EXTT6=
EXTT7=
EXTT8=
EXTT9=
EXTT10=
EXTT11=
EXTT12=
EXTT13=
EXTT14=
PLAYORDER=
